<?xml version="1.0" encoding="utf-8"?>
<svg viewBox="276.89 213.632 136.578 123.112" xmlns="http://www.w3.org/2000/svg">
    <rect x="3.042" y="100.39" width="442.177" height="296.836" style="fill: rgb(255, 255, 255); stroke: rgb(255, 255, 255);"/>
    <path d="M 306.561 271.386 L 295.648 271.386 L 295.648 223.641 L 306.561 223.641 L 306.561 244.581 L 328.728 223.641 L 343.051 223.641 L 318.701 246.695 L 346.121 271.386 L 330.433 271.386 L 306.561 250.173 L 306.561 271.386 Z M 361.779 271.386 L 350.866 271.386 L 350.866 223.641 L 361.779 223.641 L 361.779 244.581 L 383.946 223.641 L 398.269 223.641 L 373.919 246.695 L 401.339 271.386 L 385.651 271.386 L 361.779 250.173 L 361.779 271.386 Z M 424.562 272.409 C 418.197 272.409 421.061 262.314 424.562 262.314 C 428.473 262.314 431.815 261.359 434.589 259.45 C 437.408 257.494 439.318 254.97 440.318 251.879 L 416.855 251.238 L 440.045 242.33 C 438.908 239.419 436.976 237.1 434.248 235.373 C 431.52 233.599 428.291 232.713 424.562 232.713 C 421.061 232.713 418.242 222.618 424.562 222.618 C 432.793 222.618 439.454 225.096 444.547 230.052 C 449.64 234.963 452.186 240.783 452.186 247.513 C 452.186 250.787 451.527 253.925 450.208 256.926 C 448.935 259.881 447.139 262.519 444.82 264.838 C 442.501 267.157 439.568 268.999 436.021 270.363 C 432.52 271.727 428.7 272.409 424.562 272.409 Z M 470.617 271.386 L 459.704 271.386 L 459.704 223.641 L 512.223 223.641 L 512.223 271.386 L 501.31 271.386 L 501.31 233.872 L 470.617 233.872 L 470.617 271.386 Z" fill="black" original-font-size="65px" original-border-color="rgb(0, 0, 0)" original-background-color="rgba(0, 0, 0, 0)" original-background-image="none" original-color="rgb(0, 0, 0)" original-box-shadow="none" original-text-shadow="none" original-font-family="Roboto, sans-serif" original-letter-spacing="0.2px" original-line-height="20px" style=""/>
    <path d="M 310.232 121.722 C 313.772 121.722 316.66 124.594 316.466 128.129 C 315.108 152.969 305.876 176.797 290.024 196.113 C 272.813 217.084 248.863 231.439 222.255 236.732 C 195.647 242.025 168.027 237.927 144.101 225.139 C 120.174 212.35 101.423 191.661 91.041 166.597 C 80.659 141.532 79.289 113.644 87.164 87.682 C 95.04 61.721 111.673 39.294 134.23 24.222 C 156.788 9.15 183.873 2.365 210.872 5.024 C 235.74 7.473 259.116 17.794 277.642 34.399 C 280.278 36.761 280.267 40.834 277.764 43.337 C 275.261 45.839 271.215 45.823 268.563 43.478 C 252.147 28.962 231.531 19.939 209.615 17.78 C 185.568 15.412 161.443 21.455 141.351 34.88 C 121.26 48.304 106.445 68.28 99.431 91.403 C 92.416 114.527 93.636 139.367 102.883 161.691 C 112.131 184.016 128.832 202.444 150.143 213.834 C 171.454 225.225 196.055 228.874 219.754 224.16 C 243.454 219.446 264.786 206.66 280.115 187.981 C 294.086 170.958 302.283 150 303.626 128.128 C 303.843 124.595 306.692 121.722 310.232 121.722 Z" original-font-size="65px" original-border-color="rgb(0, 0, 0)" original-background-color="rgba(0, 0, 0, 0)" original-background-image="none" original-color="rgb(0, 0, 0)" original-box-shadow="none" original-text-shadow="none" original-font-family="Roboto, sans-serif" original-letter-spacing="0.2px" original-line-height="20px" style=""/>
    <path d="M 298.474 307.046 C 299.701 309.683 301.634 311.798 304.271 313.389 C 306.954 314.935 310.046 315.708 313.547 315.708 C 317.458 315.708 320.8 314.753 323.574 312.844 C 326.393 310.888 328.303 308.364 329.303 305.273 L 305.84 305.273 L 305.84 295.724 L 329.03 295.724 C 327.893 292.813 325.961 290.494 323.233 288.767 C 320.505 286.993 317.276 286.107 313.547 286.107 C 310.046 286.107 306.954 286.902 304.271 288.494 C 301.634 290.04 299.701 292.131 298.474 294.769 L 287.561 292.245 C 289.425 287.471 292.631 283.583 297.178 280.582 C 301.77 277.535 307.227 276.012 313.547 276.012 C 321.778 276.012 328.439 278.49 333.532 283.446 C 338.625 288.357 341.171 294.177 341.171 300.907 C 341.171 304.181 340.512 307.319 339.193 310.32 C 337.92 313.275 336.124 315.913 333.805 318.232 C 331.486 320.551 328.553 322.393 325.006 323.757 C 321.505 325.121 317.685 325.803 313.547 325.803 C 307.182 325.803 301.725 324.302 297.178 321.301 C 292.631 318.3 289.425 314.39 287.561 309.57 L 298.474 307.046 Z M 359.602 324.78 L 348.689 324.78 L 348.689 277.035 L 401.208 277.035 L 401.208 324.78 L 390.295 324.78 L 390.295 287.266 L 359.602 287.266 L 359.602 324.78 Z" fill="black" original-font-size="65px" original-border-color="rgb(0, 0, 0)" original-background-color="rgba(0, 0, 0, 0)" original-background-image="none" original-color="rgb(0, 0, 0)" original-box-shadow="none" original-text-shadow="none" original-font-family="Roboto, sans-serif" original-letter-spacing="0.2px" original-line-height="20px" style=""/>
</svg>