<svg xmlns="http://www.w3.org/2000/svg" width="792" height="447" viewBox="0 0 792 447" fill="none"><path d="M389.9 202H369.1V111H389.9V150.91L432.15 111H459.45L413.04 154.94L465.3 202H435.4L389.9 161.57V202ZM495.144 202H474.344V111H495.144V150.91L537.394 111H564.694L518.284 154.94L570.544 202H540.644L495.144 161.57V202ZM586.078 168.2C588.418 173.227 592.101 177.257 597.128 180.29C602.241 183.237 608.135 184.71 614.808 184.71C622.261 184.71 628.631 182.89 633.918 179.25C639.291 175.523 642.931 170.713 644.838 164.82H600.118V146.62H644.318C642.151 141.073 638.468 136.653 633.268 133.36C628.068 129.98 621.915 128.29 614.808 128.29C608.135 128.29 602.241 129.807 597.128 132.84C592.101 135.787 588.418 139.773 586.078 144.8L565.278 139.99C568.831 130.89 574.941 123.48 583.608 117.76C592.361 111.953 602.761 109.05 614.808 109.05C630.495 109.05 643.191 113.773 652.898 123.22C662.605 132.58 667.458 143.673 667.458 156.5C667.458 162.74 666.201 168.72 663.688 174.44C661.261 180.073 657.838 185.1 653.418 189.52C648.998 193.94 643.408 197.45 636.648 200.05C629.975 202.65 622.695 203.95 614.808 203.95C602.675 203.95 592.275 201.09 583.608 195.37C574.941 189.65 568.831 182.197 565.278 173.01L586.078 168.2ZM702.586 202H681.786V111H781.886V202H761.086V130.5H702.586V202Z" fill="white" original-font-size="65px" original-border-color="rgb(0, 0, 0)" original-background-color="rgba(0, 0, 0, 0)" original-background-image="none" original-color="rgb(0, 0, 0)" original-box-shadow="none" original-text-shadow="none" original-font-family="Roboto, sans-serif" original-letter-spacing="0.2px" original-line-height="20px"></path><path d="M142.771 190.674H88.7061C88.5147 190.674 88.4191 190.674 88.3381 190.676C82.942 190.763 78.5887 195.116 78.5013 200.512C78.5 200.593 78.5 200.689 78.5 200.88C78.5 201.075 78.5 201.173 78.5013 201.255C78.5911 206.727 83.0636 211.111 88.5368 211.091C88.6186 211.09 88.7157 211.088 88.9094 211.084L88.9111 211.084L161.403 209.628C169.276 209.47 173.212 209.391 175.934 207.059C178.656 204.726 179.337 200.848 180.7 193.092L195.38 109.5C195.634 108.054 196.889 107 198.357 107C199.931 107 201.241 108.207 201.37 109.775L222.198 362.803C222.94 371.807 223.31 376.31 226.305 378.971C229.3 381.633 233.815 381.471 242.845 381.149L244.034 381.107C252.147 380.817 256.204 380.672 258.918 378.193C261.632 375.713 262.142 371.686 263.162 363.632L276.111 261.373C277.166 253.045 277.693 248.881 280.527 246.383C283.362 243.885 287.559 243.885 295.953 243.885H781.69C781.978 243.885 782.122 243.885 782.243 243.882C787.575 243.753 791.867 239.461 791.997 234.128C792 234.007 792 233.863 792 233.576C792 233.288 792 233.144 791.997 233.023C791.867 227.691 787.575 223.399 782.243 223.269C782.122 223.266 781.978 223.266 781.69 223.266H279.34C270.936 223.266 266.734 223.266 263.899 225.768C261.064 228.27 260.541 232.439 259.495 240.777L244.553 359.921C244.461 360.658 243.834 361.211 243.091 361.211C242.322 361.211 241.683 360.62 241.622 359.854L221.24 104.127C220.544 95.3904 220.195 91.0224 217.322 88.369C214.449 85.7156 210.067 85.7156 201.303 85.7156H196.302C188.428 85.7156 184.491 85.7156 181.723 87.9928C178.955 90.27 178.195 94.1329 176.677 101.859L162.395 174.531C160.877 182.257 160.118 186.12 157.35 188.397C154.581 190.674 150.644 190.674 142.771 190.674Z" fill="white" original-font-size="65px" original-border-color="rgb(0, 0, 0)" original-background-color="rgba(0, 0, 0, 0)" original-background-image="none" original-color="rgb(0, 0, 0)" original-box-shadow="none" original-text-shadow="none" original-font-family="Roboto, sans-serif" original-letter-spacing="0.2px" original-line-height="20px"></path><path d="M434.784 223.5C441.531 223.5 447.035 228.974 446.666 235.711C444.077 283.055 426.482 328.471 396.268 365.287C363.465 405.258 317.817 432.618 267.103 442.706C216.388 452.793 163.745 444.984 118.143 420.609C72.5405 396.234 36.8007 356.802 17.0129 309.03C-2.77483 261.258 -5.38618 208.103 9.62383 158.621C24.6338 109.14 56.3365 66.3939 99.33 37.6666C142.324 8.93918 193.948 -3.99204 245.407 1.07621C292.804 5.7444 337.359 25.4166 372.668 57.0633C377.692 61.5661 377.671 69.3288 372.901 74.0993C368.13 78.8698 360.419 78.8381 355.365 74.3691C324.076 46.7016 284.783 29.5038 243.012 25.3897C197.178 20.8755 151.197 32.3932 112.903 57.9803C74.6094 83.5675 46.3722 121.641 33.003 165.713C19.6337 209.786 21.9596 257.131 39.5844 299.68C57.2091 342.23 89.0422 377.353 129.66 399.063C170.277 420.774 217.166 427.729 262.336 418.744C307.507 409.759 348.165 385.389 377.382 349.788C404.01 317.342 419.634 277.397 422.194 235.709C422.608 228.975 428.038 223.5 434.784 223.5Z" fill="white" original-font-size="65px" original-border-color="rgb(0, 0, 0)" original-background-color="rgba(0, 0, 0, 0)" original-background-image="none" original-color="rgb(0, 0, 0)" original-box-shadow="none" original-text-shadow="none" original-font-family="Roboto, sans-serif" original-letter-spacing="0.2px" original-line-height="20px"></path></svg>